<?xml version="1.0" encoding="UTF-8"?>
<svg viewBox="0 0 224 65" xmlns="http://www.w3.org/2000/svg">
<g>
<linearGradient id="a" x1="154.66" x2="215.28" y1="22.221" y2="50.36" gradientUnits="userSpaceOnUse">
<stop stop-color="#f56300" offset="0"/>
<stop stop-color="#ffa365" offset="1"/>
</linearGradient>
<path d="m157.77 64.43c-2.1601 0-4.0008-0.76063-5.522-2.2819-1.5212-1.5213-2.2818-3.362-2.2818-5.5221v-40.671c0-2.1601 0.76065-4.0008 2.282-5.5221 1.5212-1.5213 3.3619-2.2819 5.522-2.2819h16.808c1.0378 0 2.0293 0.19544 2.9745 0.58632 0.94521 0.39088 1.7801 0.94862 2.5047 1.6732l4.9086 4.9086h27.196c2.1601 0 4.0008 0.76064 5.5221 2.2819 1.5213 1.5213 2.2819 3.362 2.2819 5.5221v33.503c0 2.1601-0.76064 4.0008-2.2819 5.5221-1.5213 1.5213-3.362 2.2819-5.5221 2.2819h-54.392z" fill="url(#a)"/>
<path d="m131.96 30.265c-0.25195 0.12598-0.46191 0.18896-0.62988 0.18896-0.29394 0-0.56714-0.14697-0.81909-0.44092-1.8899-2.394-3.864-4.0742-5.9219-5.04-2.0581-0.96631-3.843-1.4492-5.355-1.4492-1.092 0-2.1001 0.23096-3.0242 0.69287-0.92383 0.4624-1.386 1.3022-1.386 2.52 0 0.92432 0.34668 1.6909 1.0396 2.2998 0.69312 0.60889 1.5854 1.1025 2.6775 1.4805s2.2051 0.71387 3.3391 1.0078c1.6379 0.37793 3.2864 0.81934 4.9453 1.3232 1.6592 0.50391 3.1816 1.1655 4.5676 1.9844 1.386 0.81885 2.5095 1.8374 3.3704 3.0557 0.86108 1.2178 1.2915 2.751 1.2915 4.5986 0 1.9741-0.5354 3.7383-1.6064 5.292-1.071 1.5542-2.5935 2.7827-4.5674 3.6855-1.9741 0.90332-4.3259 1.3545-7.0562 1.3545-1.302 0-2.5725-0.15723-3.8115-0.47217-1.239-0.31494-2.4043-0.72461-3.4963-1.2285-0.25195-0.12598-0.44116-0.18896-0.56714-0.18896-0.29395 0-0.44092 0.14697-0.44092 0.44092 0 0.083985 0.041992 0.25195 0.12598 0.50391 0.083985 0.25195 0.12598 0.41992 0.12598 0.50391 0 0.33594-0.25195 0.50391-0.75586 0.50391h-2.2681c-0.46191 0-0.81909-0.20996-1.071-0.62988l-5.418-10.143c-0.12598-0.25195-0.18896-0.44092-0.18896-0.5669 0-0.29394 0.16797-0.5459 0.50391-0.75586l1.9531-1.1343c0.25195-0.12598 0.44092-0.18896 0.56689-0.18896 0.25195 0 0.48291 0.18896 0.69312 0.56689 2.0579 3.0664 4.3154 5.25 6.7725 6.5522 2.457 1.3018 4.9666 1.9531 7.5286 1.9531 4.032 0 6.0479-1.1973 6.0479-3.5913 0-1.0918-0.49341-1.9946-1.4805-2.709-0.98706-0.71387-2.2051-1.3018-3.6541-1.7637-1.449-0.4624-2.9084-0.86133-4.3784-1.1973-2.688-0.67188-4.8301-1.4385-6.426-2.2993-1.5959-0.86133-2.793-1.7852-3.5911-2.772-0.79785-0.9873-1.3335-1.9741-1.6064-2.9609-0.27295-0.9873-0.40942-1.9429-0.40942-2.8667 0-2.52 0.96582-4.5991 2.8979-6.2368 1.9319-1.6382 4.5569-2.457 7.875-2.457 1.9741 0 3.717 0.26221 5.229 0.78711 1.512 0.52539 2.562 0.95557 3.1499 1.2915 0.16797 0.084472 0.29419 0.12646 0.37817 0.12646 0.12598 0 0.18896-0.084472 0.18896-0.25244 0-0.12598-0.062988-0.37793-0.18896-0.75586-0.041992-0.20996-0.073486-0.36719-0.094482-0.47266-0.020996-0.10498-0.031494-0.19922-0.031494-0.2832 0-0.41992 0.27295-0.62988 0.81885-0.62988h1.6379c0.54614 0 0.90308 0.23096 1.071 0.69287l3.1501 8.001c0.12598 0.25195 0.18896 0.46191 0.18896 0.62988 0 0.29394-0.16797 0.5249-0.50415 0.69287zm-29.547 13.23c0.33594 0.25195 0.50391 0.5249 0.50391 0.81885 0 0.083984-0.041993 0.25195-0.12598 0.50391-1.218 2.688-3.0134 4.6938-5.3865 6.0166-2.373 1.3232-4.9666 1.9844-7.7805 1.9844-2.3521 0-4.4939-0.51416-6.426-1.5435-1.9319-1.0288-3.5701-2.4043-4.9141-4.1265s-2.3308-3.6538-2.9609-5.7959c-0.62988-2.1421-0.86084-4.3472-0.69287-6.6152 0.29395-3.4858 1.26-6.3418 2.898-8.5679 1.6379-2.2261 3.6226-3.8638 5.9534-4.9141 2.3311-1.0498 4.6726-1.5747 7.0247-1.5747 2.772 0 5.019 0.41992 6.741 1.2598s3.0449 1.9321 3.969 3.2759c0.92407 1.3442 1.554 2.751 1.8899 4.2212 0.041993 0.16797 0.062989 0.31494 0.062989 0.44092 0 0.33594-0.25195 0.5669-0.75586 0.69287l-7.2451 1.8901c-0.25195 0.083984-0.44092 0.12598-0.56689 0.12598-0.29395 0-0.44092-0.14697-0.44092-0.44092 0-0.16797 0.010498-0.33594 0.031494-0.50391 0.020996-0.16797 0.031494-0.39892 0.031494-0.69287 0-1.3442-0.42017-2.541-1.26-3.5913-0.84009-1.0498-2.1421-1.5747-3.906-1.5747-1.5962 0-2.8562 0.50391-3.78 1.5117-0.92407 1.0083-1.5854 2.2998-1.9846 3.8745-0.39893 1.5752-0.59839 3.2236-0.59839 4.9458 0 2.0576 0.27295 4.0107 0.81885 5.8589 0.54614 1.8481 1.4385 3.3496 2.6775 4.5044s2.9297 1.7324 5.0715 1.7324c1.6802 0 3.2341-0.40918 4.6621-1.2285 1.428-0.81885 2.604-1.9424 3.5281-3.3706 0.16797-0.29394 0.41992-0.44092 0.75586-0.44092 0.20996 0 0.39893 0.062988 0.56714 0.18896zm-48.195-23.814c2.394 0 4.6096 0.47217 6.6465 1.4175 2.0371 0.94482 3.7905 2.2261 5.2605 3.8428 1.47 1.6172 2.6145 3.4229 3.4336 5.418 0.81885 1.9951 1.2285 4.0635 1.2285 6.2056 0 3.1079-0.73511 5.8906-2.2051 8.3477-1.47 2.457-3.4021 4.3887-5.7959 5.7959-2.394 1.4072-4.998 2.1104-7.812 2.1104-2.394 0-4.5991-0.46191-6.615-1.3857-2.0161-0.92432-3.7695-2.1738-5.2605-3.7485-1.4912-1.5752-2.646-3.3809-3.4651-5.418-0.81909-2.0371-1.2285-4.1685-1.2285-6.3945 0-3.0659 0.71411-5.8169 2.1421-8.2529 1.428-2.436 3.3389-4.3682 5.7329-5.7959 2.394-1.4282 5.04-2.1421 7.938-2.1421zm2.709 28.035c0.7981 0 1.6799-0.20996 2.646-0.62988 0.96606-0.41992 1.8167-1.1548 2.5515-2.2051 0.73511-1.0498 1.1025-2.499 1.1025-4.3467 0-1.4702-0.28345-3.0977-0.85059-4.8828-0.56689-1.7847-1.344-3.5068-2.3308-5.166-0.98706-1.6587-2.1421-3.0239-3.4651-4.0947-1.323-1.0713-2.7615-1.6064-4.3154-1.6064-1.7222 0-3.2131 0.64014-4.4731 1.9214-1.26 1.2808-1.8899 3.0342-1.8899 5.2603 0 1.4282 0.28345 3.0454 0.85034 4.8511 0.56714 1.8062 1.344 3.5386 2.3311 5.1978 0.98706 1.6587 2.1526 3.0239 3.4966 4.0947 1.344 1.0713 2.793 1.6064 4.3469 1.6064zm-24.381-7.3706c0 1.5117 0.23096 2.8662 0.69287 4.0635 0.46191 1.1968 1.47 1.9004 3.0239 2.1104 0.50415 0.041992 0.7561 0.31494 0.7561 0.81885v2.0791c0 0.58789-0.31494 0.88184-0.94507 0.88184-2.0579 0-3.7695 0.11572-5.1345 0.34668-1.365 0.23096-2.541 0.5249-3.5278 0.88184-0.98706 0.35693-1.9636 0.7456-2.9297 1.1655-0.16797 0.083984-0.31494 0.12598-0.44092 0.12598h-0.12598c-0.12598 0-0.18896-0.062989-0.18896-0.18896 0.083984-0.96582 0.17847-1.9106 0.28345-2.835 0.10498-0.92383 0.24146-1.8481 0.40942-2.772-0.20996 0.5459-0.66138 1.2812-1.3545 2.2051-0.69287 0.92383-1.7009 1.7534-3.0239 2.4883-1.323 0.73535-3.0554 1.1025-5.1975 1.1025-1.428 0-2.9504-0.29395-4.5674-0.88184-1.6172-0.58789-3.1396-1.5332-4.5676-2.835-1.428-1.3022-2.5935-3.0137-3.4966-5.1348-0.90283-2.1206-1.3545-4.7144-1.3545-7.7803 0-3.9062 0.70361-7.0664 2.1106-9.4814 1.407-2.415 3.2339-4.1895 5.481-5.3237 2.2471-1.1338 4.6306-1.7007 7.1506-1.7007 3.1919 0 5.9009 0.98682 8.127 2.9609v-4.0322c0-1.1338-0.073487-2.2261-0.22046-3.2759-0.14697-1.0498-0.47266-1.9424-0.97656-2.6772-0.50391-0.73535-1.344-1.1655-2.52-1.2915-0.50391-0.041992-0.7561-0.31543-0.7561-0.81934v-2.1421c0-0.25195 0.084229-0.43018 0.2522-0.53516 0.16797-0.10498 0.39893-0.19971 0.69287-0.28369 3.3181-1.0918 5.9116-2.1841 7.7805-3.2759 1.8691-1.0923 3.2236-1.9531 4.0635-2.583 0.12598-0.083984 0.23096-0.12598 0.31494-0.12598h0.062988c0.084229 0 0.12622 0.041992 0.12622 0.12598zm-8.8201-8.7573c0-1.9741-0.64062-3.6538-1.9216-5.04-1.281-1.3857-2.9714-2.0786-5.0713-2.0786-2.0161 0-3.5911 0.44092-4.7251 1.3228s-1.9216 2.0581-2.3625 3.5278c-0.44092 1.4702-0.66138 3.0874-0.66138 4.8511 0 4.0322 0.80835 7.2241 2.4253 9.5762 1.6172 2.3521 3.7065 3.5278 6.2686 3.5278 1.134 0 2.1211-0.2832 2.9612-0.85059 0.83984-0.56689 1.5225-1.2705 2.0474-2.1104 0.5249-0.83984 0.87158-1.6382 1.0396-2.394z" fill="#fff" fill-rule="evenodd"/>
</g>
</svg>
