<?xml version="1.0" encoding="UTF-8"?>
<svg viewBox="0 0 224 65" xmlns="http://www.w3.org/2000/svg">
<g>
<linearGradient id="a" x1="154.69" x2="215.31" y1="22.221" y2="50.36" gradientUnits="userSpaceOnUse">
<stop stop-color="#f56300" offset="0"/>
<stop stop-color="#ffa365" offset="1"/>
</linearGradient>
<path d="m157.8 64.43c-2.1601 0-4.0008-0.76063-5.5221-2.2819-1.5212-1.5213-2.2818-3.362-2.2818-5.5221v-40.671c0-2.1601 0.76067-4.0008 2.282-5.5221 1.5212-1.5213 3.3619-2.2819 5.522-2.2819h16.808c1.0378 0 2.0293 0.19544 2.9745 0.58632 0.94522 0.39088 1.7801 0.94862 2.5047 1.6732l4.9086 4.9086h27.196c2.1601 0 4.0008 0.76064 5.522 2.2819 1.5213 1.5213 2.2819 3.362 2.2819 5.5221v33.503c0 2.1601-0.76064 4.0008-2.2819 5.5221-1.5213 1.5213-3.362 2.2819-5.522 2.2819h-54.392z" fill="url(#a)"/>
<path d="m131.99 30.265c-0.25195 0.12598-0.4624 0.18896-0.63037 0.18896-0.29394 0-0.5669-0.14697-0.81885-0.44092-1.8901-2.394-3.8638-4.0742-5.9219-5.04-2.0581-0.96631-3.8433-1.4492-5.355-1.4492-1.0923 0-2.1001 0.23096-3.0239 0.69287-0.92432 0.4624-1.3862 1.3022-1.3862 2.52 0 0.92432 0.34668 1.6909 1.0396 2.2998s1.5854 1.1025 2.6777 1.4805c1.0918 0.37793 2.2046 0.71387 3.3389 1.0078 1.6377 0.37793 3.2866 0.81934 4.9453 1.3232 1.6592 0.50391 3.1816 1.1655 4.5674 1.9844 1.3862 0.81885 2.5098 1.8374 3.3706 3.0557 0.86133 1.2178 1.2915 2.751 1.2915 4.5986 0 1.9741-0.53516 3.7383-1.6064 5.292-1.0708 1.5542-2.5933 2.7827-4.5674 3.6855-1.9741 0.90332-4.3262 1.3545-7.0562 1.3545-1.3018 0-2.5723-0.15723-3.8115-0.47217-1.2388-0.31494-2.4043-0.72461-3.4966-1.2285-0.25195-0.12598-0.44092-0.18896-0.5669-0.18896-0.29394 0-0.44092 0.14697-0.44092 0.44092 0 0.083985 0.041992 0.25195 0.12598 0.50391 0.083984 0.25195 0.12598 0.41992 0.12598 0.50391 0 0.33594-0.25195 0.50391-0.75586 0.50391h-2.2681c-0.46192 0-0.81885-0.20996-1.0708-0.62988l-5.4185-10.143c-0.12598-0.25195-0.18896-0.44092-0.18896-0.5669 0-0.29394 0.16797-0.5459 0.50439-0.75586l1.9526-1.1343c0.25195-0.12598 0.44141-0.18896 0.56738-0.18896 0.25195 0 0.48291 0.18896 0.69287 0.56689 2.0581 3.0664 4.3154 5.25 6.7725 6.5522 2.457 1.3018 4.9663 1.9531 7.5283 1.9531 4.0322 0 6.0483-1.1973 6.0483-3.5913 0-1.0918-0.49365-1.9946-1.4805-2.709-0.9873-0.71387-2.2051-1.3018-3.6543-1.7637-1.4487-0.4624-2.9082-0.86133-4.3784-1.1973-2.688-0.67188-4.8301-1.4385-6.4258-2.2993-1.5962-0.86133-2.7935-1.7852-3.5913-2.772-0.79785-0.9873-1.3335-1.9741-1.6064-2.9609-0.27295-0.9873-0.40967-1.9429-0.40967-2.8667 0-2.52 0.96631-4.5991 2.898-6.2368 1.9321-1.6382 4.5571-2.457 7.875-2.457 1.9741 0 3.7173 0.26221 5.229 0.78711 1.5122 0.52539 2.562 0.95557 3.1504 1.2915 0.16797 0.084472 0.29394 0.12646 0.37793 0.12646 0.12598 0 0.18896-0.084472 0.18896-0.25244 0-0.12598-0.062989-0.37793-0.18896-0.75586-0.041992-0.20996-0.073731-0.36719-0.094727-0.47266-0.020996-0.10498-0.03125-0.19922-0.03125-0.2832 0-0.41992 0.27295-0.62988 0.81885-0.62988h1.6382c0.5459 0 0.90283 0.23096 1.0708 0.69287l3.1499 8.001c0.12598 0.25195 0.18896 0.46191 0.18896 0.62988 0 0.29394-0.16797 0.5249-0.50391 0.69287zm-29.547 13.23c0.33643 0.25195 0.50439 0.5249 0.50439 0.81885 0 0.083984-0.041992 0.25195-0.12598 0.50391-1.2183 2.688-3.0137 4.6938-5.3867 6.0166-2.373 1.3232-4.9663 1.9844-7.7803 1.9844-2.3521 0-4.4941-0.51416-6.4263-1.5435-1.9321-1.0288-3.5698-2.4043-4.9141-4.1265-1.3438-1.7222-2.3311-3.6538-2.9609-5.7959-0.62988-2.1421-0.86084-4.3472-0.69287-6.6152 0.29394-3.4858 1.2598-6.3418 2.8979-8.5679 1.6382-2.2261 3.6226-3.8638 5.9536-4.9141 2.3311-1.0498 4.6724-1.5747 7.0244-1.5747 2.772 0 5.019 0.41992 6.7407 1.2598 1.7222 0.83984 3.0454 1.9321 3.9692 3.2759 0.92383 1.3442 1.5542 2.751 1.8901 4.2212 0.041992 0.16797 0.062988 0.31494 0.062988 0.44092 0 0.33594-0.25195 0.5669-0.75635 0.69287l-7.2446 1.8901c-0.25195 0.083984-0.44141 0.12598-0.56738 0.12598-0.29394 0-0.44092-0.14697-0.44092-0.44092 0-0.16797 0.010742-0.33594 0.031738-0.50391 0.020996-0.16797 0.03125-0.39892 0.03125-0.69287 0-1.3442-0.41992-2.541-1.2598-3.5913-0.84033-1.0498-2.1421-1.5747-3.9062-1.5747-1.5957 0-2.856 0.50391-3.7798 1.5117-0.92383 1.0083-1.5854 2.2998-1.9844 3.8745-0.39941 1.5752-0.59863 3.2236-0.59863 4.9458 0 2.0576 0.27295 4.0107 0.81885 5.8589 0.5459 1.8481 1.4385 3.3496 2.6777 4.5044 1.2388 1.1548 2.9292 1.7324 5.0713 1.7324 1.6802 0 3.2339-0.40918 4.6621-1.2285 1.4277-0.81885 2.604-1.9424 3.5278-3.3706 0.16797-0.29394 0.41992-0.44092 0.75635-0.44092 0.20996 0 0.39893 0.062988 0.56689 0.18896zm-48.195-23.814c2.394 0 4.6094 0.47217 6.6465 1.4175 2.0371 0.94482 3.7905 2.2261 5.2607 3.8428 1.4697 1.6172 2.6143 3.4229 3.4331 5.418 0.81934 1.9951 1.2285 4.0635 1.2285 6.2056 0 3.1079-0.73486 5.8906-2.2046 8.3477-1.4702 2.457-3.4023 4.3887-5.7964 5.7959-2.394 1.4072-4.998 2.1104-7.812 2.1104-2.394 0-4.5986-0.46191-6.6147-1.3857-2.0161-0.92432-3.7695-2.1738-5.2607-3.7485-1.4907-1.5752-2.646-3.3809-3.4648-5.418-0.81885-2.0371-1.2285-4.1685-1.2285-6.3945 0-3.0659 0.71387-5.8169 2.1421-8.2529 1.4277-2.436 3.3389-4.3682 5.7329-5.7959 2.394-1.4282 5.04-2.1421 7.938-2.1421zm2.709 28.035c0.79785 0 1.6802-0.20996 2.646-0.62988 0.96582-0.41992 1.8164-1.1548 2.5518-2.2051 0.73486-1.0498 1.1021-2.499 1.1021-4.3467 0-1.4702-0.2832-3.0977-0.8501-4.8828-0.56738-1.7847-1.3442-3.5068-2.3311-5.166-0.9873-1.6587-2.1421-3.0239-3.4653-4.0947-1.3228-1.0713-2.7612-1.6064-4.3154-1.6064-1.7217 0-3.2129 0.64014-4.4727 1.9214-1.2603 1.2808-1.8901 3.0342-1.8901 5.2603 0 1.4282 0.2832 3.0454 0.85059 4.8511 0.56689 1.8062 1.3438 3.5386 2.3311 5.1978 0.98682 1.6587 2.1523 3.0239 3.4961 4.0947 1.3442 1.0713 2.793 1.6064 4.3472 1.6064zm-24.381-7.3706c0 1.5117 0.23096 2.8662 0.69287 4.0635 0.46191 1.1968 1.4702 1.9004 3.0239 2.1104 0.50391 0.041992 0.75586 0.31494 0.75586 0.81885v2.0791c0 0.58789-0.31494 0.88184-0.94482 0.88184-2.0581 0-3.7695 0.11572-5.1343 0.34668-1.3652 0.23096-2.541 0.5249-3.5283 0.88184-0.98682 0.35693-1.9634 0.7456-2.9292 1.1655-0.16797 0.083984-0.31494 0.12598-0.44092 0.12598h-0.12598c-0.12646 0-0.18945-0.062989-0.18945-0.18896 0.083984-0.96582 0.17871-1.9106 0.28369-2.835 0.10498-0.92383 0.2417-1.8481 0.40967-2.772-0.20996 0.5459-0.66162 1.2812-1.3545 2.2051-0.69336 0.92383-1.7012 1.7534-3.0239 2.4883-1.3232 0.73535-3.0557 1.1025-5.1978 1.1025-1.4282 0-2.9507-0.29395-4.5674-0.88184-1.6172-0.58789-3.1396-1.5332-4.5674-2.835-1.4282-1.3022-2.5938-3.0137-3.4966-5.1348-0.90332-2.1206-1.3545-4.7144-1.3545-7.7803 0-3.9062 0.70312-7.0664 2.1104-9.4814 1.4072-2.415 3.2339-4.1895 5.481-5.3237 2.2471-1.1338 4.6304-1.7007 7.1504-1.7007 3.1924 0 5.9014 0.98682 8.127 2.9609v-4.0322c0-1.1338-0.073242-2.2261-0.22022-3.2759-0.14697-1.0498-0.47266-1.9424-0.97656-2.6772-0.50391-0.73535-1.3442-1.1655-2.52-1.2915-0.50391-0.041992-0.75586-0.31543-0.75586-0.81934v-2.1421c0-0.25195 0.083984-0.43018 0.25195-0.53516 0.16797-0.10498 0.39893-0.19971 0.69287-0.28369 3.3179-1.0918 5.9116-2.1841 7.7808-3.2759 1.8687-1.0923 3.2231-1.9531 4.0635-2.583 0.12598-0.083984 0.23096-0.12598 0.31494-0.12598h0.062988c0.083984 0 0.12598 0.041992 0.12598 0.12598zm-8.8203-8.7573c0-1.9741-0.64014-3.6538-1.9214-5.04-1.2808-1.3857-2.9712-2.0786-5.0713-2.0786-2.0161 0-3.5913 0.44092-4.7251 1.3228s-1.9214 2.0581-2.3623 3.5278c-0.44141 1.4702-0.66162 3.0874-0.66162 4.8511 0 4.0322 0.80859 7.2241 2.4253 9.5762 1.6172 2.3521 3.7065 3.5278 6.2686 3.5278 1.1343 0 2.1211-0.2832 2.9609-0.85059 0.84033-0.56689 1.5225-1.2705 2.0479-2.1104 0.5249-0.83984 0.87109-1.6382 1.0391-2.394z" fill-rule="evenodd"/>
</g>
</svg>
